<?xml version="1.0" encoding="UTF-8"?>
<svg xmlns="http://www.w3.org/2000/svg" width="900" height="600" viewBox="0 0 900 600" font-family="ui-sans-serif, system-ui, -apple-system, &apos;Segoe UI&apos;, Roboto, &apos;Helvetica Neue&apos;, Arial, sans-serif">
<title>meta.kgl</title>
<rect width="900" height="600" fill="#0d1117"/>
<rect x="199.67" y="131.7" width="178.64" height="178.64" rx="22" fill="#8b949e" fill-opacity="0.045" stroke="#8b949e" stroke-opacity="0.16" stroke-width="1"/>
<rect x="521.69" y="131.7" width="178.64" height="178.64" rx="22" fill="#8b949e" fill-opacity="0.045" stroke="#8b949e" stroke-opacity="0.16" stroke-width="1"/>
<rect x="201.87" y="451.88" width="159.58" height="111.57" rx="22" fill="#8b949e" fill-opacity="0.045" stroke="#8b949e" stroke-opacity="0.16" stroke-width="1"/>
<rect x="508.09" y="451.93" width="161.85" height="111.27" rx="22" fill="#8b949e" fill-opacity="0.045" stroke="#8b949e" stroke-opacity="0.16" stroke-width="1"/>
<g stroke="#8b949e" stroke-opacity="0.45" stroke-linecap="round">
<line x1="316.87" y1="153.7" x2="288.99" y2="221.02" stroke-width="0.5"/>
<line x1="356.31" y1="193.14" x2="288.99" y2="221.02" stroke-width="0.5"/>
<line x1="356.31" y1="248.9" x2="288.99" y2="221.02" stroke-width="0.5"/>
<line x1="316.87" y1="288.34" x2="288.99" y2="221.02" stroke-width="0.5"/>
<line x1="261.11" y1="288.34" x2="288.99" y2="221.02" stroke-width="0.5"/>
<line x1="221.67" y1="248.9" x2="288.99" y2="221.02" stroke-width="0.5"/>
<line x1="221.67" y1="193.14" x2="288.99" y2="221.02" stroke-width="0.5"/>
<line x1="261.11" y1="153.7" x2="288.99" y2="221.02" stroke-width="0.5"/>
<line x1="638.89" y1="153.7" x2="611.01" y2="221.02" stroke-width="0.5"/>
<line x1="678.33" y1="193.14" x2="611.01" y2="221.02" stroke-width="0.5"/>
<line x1="678.33" y1="248.9" x2="611.01" y2="221.02" stroke-width="0.5"/>
<line x1="638.89" y1="288.34" x2="611.01" y2="221.02" stroke-width="0.5"/>
<line x1="583.13" y1="288.34" x2="611.01" y2="221.02" stroke-width="0.5"/>
<line x1="543.69" y1="248.9" x2="611.01" y2="221.02" stroke-width="0.5"/>
<line x1="543.69" y1="193.14" x2="611.01" y2="221.02" stroke-width="0.5"/>
<line x1="583.13" y1="153.7" x2="611.01" y2="221.02" stroke-width="0.5"/>
<line x1="223.87" y1="473.88" x2="281.4" y2="484.04" stroke-width="0.5"/>
<line x1="339.45" y1="476.63" x2="281.4" y2="484.04" stroke-width="0.5"/>
<line x1="314.45" y1="541.46" x2="281.4" y2="484.04" stroke-width="0.5"/>
<line x1="245" y1="540.04" x2="281.4" y2="484.04" stroke-width="0.5"/>
<line x1="530.09" y1="473.93" x2="588.84" y2="483.12" stroke-width="0.5"/>
<line x1="647.93" y1="474.8" x2="588.84" y2="483.12" stroke-width="0.5"/>
<line x1="623.33" y1="541.2" x2="588.84" y2="483.12" stroke-width="0.5"/>
<line x1="552.51" y1="541.09" x2="588.84" y2="483.12" stroke-width="0.5"/>
</g>
<g>
<circle cx="288.99" cy="221.02" r="39" fill="#f58299" fill-opacity="0.12"/>
<circle cx="288.99" cy="221.02" r="25.5" fill="none" stroke="#f58299" stroke-opacity="0.55" stroke-width="1.5"/>
<circle cx="288.99" cy="221.02" r="15" fill="#f58299" fill-opacity="0.9" stroke="#f58299" stroke-opacity="1" stroke-width="1"><title>Company_0</title></circle>
<circle cx="611.01" cy="221.02" r="39" fill="#f58299" fill-opacity="0.12"/>
<circle cx="611.01" cy="221.02" r="25.5" fill="none" stroke="#f58299" stroke-opacity="0.55" stroke-width="1.5"/>
<circle cx="611.01" cy="221.02" r="15" fill="#f58299" fill-opacity="0.9" stroke="#f58299" stroke-opacity="1" stroke-width="1"><title>Company_1</title></circle>
<circle cx="316.87" cy="153.7" r="6" fill="#5cadfa" fill-opacity="0.9" stroke="#5cadfa" stroke-opacity="1" stroke-width="1"><title>Person_54</title></circle>
<circle cx="356.31" cy="193.14" r="6" fill="#5cadfa" fill-opacity="0.9" stroke="#5cadfa" stroke-opacity="1" stroke-width="1"><title>Person_52</title></circle>
<circle cx="356.31" cy="248.9" r="6" fill="#5cadfa" fill-opacity="0.9" stroke="#5cadfa" stroke-opacity="1" stroke-width="1"><title>Person_51</title></circle>
<circle cx="316.87" cy="288.34" r="6" fill="#5cadfa" fill-opacity="0.9" stroke="#5cadfa" stroke-opacity="1" stroke-width="1"><title>Person_40</title></circle>
<circle cx="261.11" cy="288.34" r="6" fill="#5cadfa" fill-opacity="0.9" stroke="#5cadfa" stroke-opacity="1" stroke-width="1"><title>Person_21</title></circle>
<circle cx="221.67" cy="248.9" r="6" fill="#5cadfa" fill-opacity="0.9" stroke="#5cadfa" stroke-opacity="1" stroke-width="1"><title>Person_12</title></circle>
<circle cx="221.67" cy="193.14" r="6" fill="#5cadfa" fill-opacity="0.9" stroke="#5cadfa" stroke-opacity="1" stroke-width="1"><title>Person_9</title></circle>
<circle cx="261.11" cy="153.7" r="6" fill="#5cadfa" fill-opacity="0.9" stroke="#5cadfa" stroke-opacity="1" stroke-width="1"><title>Person_0</title></circle>
<circle cx="638.89" cy="153.7" r="6" fill="#5cadfa" fill-opacity="0.9" stroke="#5cadfa" stroke-opacity="1" stroke-width="1"><title>Person_58</title></circle>
<circle cx="678.33" cy="193.14" r="6" fill="#5cadfa" fill-opacity="0.9" stroke="#5cadfa" stroke-opacity="1" stroke-width="1"><title>Person_49</title></circle>
<circle cx="678.33" cy="248.9" r="6" fill="#5cadfa" fill-opacity="0.9" stroke="#5cadfa" stroke-opacity="1" stroke-width="1"><title>Person_36</title></circle>
<circle cx="638.89" cy="288.34" r="6" fill="#5cadfa" fill-opacity="0.9" stroke="#5cadfa" stroke-opacity="1" stroke-width="1"><title>Person_30</title></circle>
<circle cx="583.13" cy="288.34" r="6" fill="#5cadfa" fill-opacity="0.9" stroke="#5cadfa" stroke-opacity="1" stroke-width="1"><title>Person_25</title></circle>
<circle cx="543.69" cy="248.9" r="6" fill="#5cadfa" fill-opacity="0.9" stroke="#5cadfa" stroke-opacity="1" stroke-width="1"><title>Person_20</title></circle>
<circle cx="543.69" cy="193.14" r="6" fill="#5cadfa" fill-opacity="0.9" stroke="#5cadfa" stroke-opacity="1" stroke-width="1"><title>Person_19</title></circle>
<circle cx="583.13" cy="153.7" r="6" fill="#5cadfa" fill-opacity="0.9" stroke="#5cadfa" stroke-opacity="1" stroke-width="1"><title>Person_13</title></circle>
<circle cx="223.87" cy="473.88" r="6" fill="#5cadfa" fill-opacity="0.9" stroke="#5cadfa" stroke-opacity="1" stroke-width="1"><title>Person_42</title></circle>
<circle cx="281.4" cy="484.04" r="6" fill="#f58299" fill-opacity="0.9" stroke="#f58299" stroke-opacity="1" stroke-width="1"><title>Company_2</title></circle>
<circle cx="339.45" cy="476.63" r="6" fill="#5cadfa" fill-opacity="0.9" stroke="#5cadfa" stroke-opacity="1" stroke-width="1"><title>Person_24</title></circle>
<circle cx="314.45" cy="541.46" r="6" fill="#5cadfa" fill-opacity="0.9" stroke="#5cadfa" stroke-opacity="1" stroke-width="1"><title>Person_18</title></circle>
<circle cx="245" cy="540.04" r="6" fill="#5cadfa" fill-opacity="0.9" stroke="#5cadfa" stroke-opacity="1" stroke-width="1"><title>Person_16</title></circle>
<circle cx="530.09" cy="473.93" r="6" fill="#5cadfa" fill-opacity="0.9" stroke="#5cadfa" stroke-opacity="1" stroke-width="1"><title>Person_48</title></circle>
<circle cx="588.84" cy="483.12" r="6" fill="#f58299" fill-opacity="0.9" stroke="#f58299" stroke-opacity="1" stroke-width="1"><title>Company_3</title></circle>
<circle cx="647.93" cy="474.8" r="6" fill="#5cadfa" fill-opacity="0.9" stroke="#5cadfa" stroke-opacity="1" stroke-width="1"><title>Person_41</title></circle>
<circle cx="623.33" cy="541.2" r="6" fill="#5cadfa" fill-opacity="0.9" stroke="#5cadfa" stroke-opacity="1" stroke-width="1"><title>Person_37</title></circle>
<circle cx="552.51" cy="541.09" r="6" fill="#5cadfa" fill-opacity="0.9" stroke="#5cadfa" stroke-opacity="1" stroke-width="1"><title>Person_35</title></circle>
</g>
<g font-size="12">
<rect x="326.87" y="143.7" width="83.3" height="20" rx="5" fill="#0d1117" fill-opacity="0.78" stroke="#8b949e" stroke-opacity="0.35"/>
<text x="333.87" y="157.7" fill="#e6edf3" font-weight="600">Person_54</text>
<rect x="247.34" y="240.02" width="83.3" height="20" rx="5" fill="#0d1117" fill-opacity="0.78" stroke="#8b949e" stroke-opacity="0.35"/>
<text x="254.34" y="254.02" fill="#e6edf3" font-weight="600">Company_0</text>
<rect x="366.31" y="183.14" width="83.3" height="20" rx="5" fill="#0d1117" fill-opacity="0.78" stroke="#8b949e" stroke-opacity="0.35"/>
<text x="373.31" y="197.14" fill="#e6edf3" font-weight="600">Person_52</text>
<rect x="326.87" y="278.34" width="83.3" height="20" rx="5" fill="#0d1117" fill-opacity="0.78" stroke="#8b949e" stroke-opacity="0.35"/>
<text x="333.87" y="292.34" fill="#e6edf3" font-weight="600">Person_40</text>
<rect x="167.81" y="278.34" width="83.3" height="20" rx="5" fill="#0d1117" fill-opacity="0.78" stroke="#8b949e" stroke-opacity="0.35"/>
<text x="174.81" y="292.34" fill="#e6edf3" font-weight="600">Person_21</text>
<rect x="136.07" y="183.14" width="75.6" height="20" rx="5" fill="#0d1117" fill-opacity="0.78" stroke="#8b949e" stroke-opacity="0.35"/>
<text x="143.07" y="197.14" fill="#e6edf3" font-weight="600">Person_9</text>
<rect x="175.51" y="143.7" width="75.6" height="20" rx="5" fill="#0d1117" fill-opacity="0.78" stroke="#8b949e" stroke-opacity="0.35"/>
<text x="182.51" y="157.7" fill="#e6edf3" font-weight="600">Person_0</text>
<rect x="648.89" y="143.7" width="83.3" height="20" rx="5" fill="#0d1117" fill-opacity="0.78" stroke="#8b949e" stroke-opacity="0.35"/>
<text x="655.89" y="157.7" fill="#e6edf3" font-weight="600">Person_58</text>
<rect x="569.36" y="240.02" width="83.3" height="20" rx="5" fill="#0d1117" fill-opacity="0.78" stroke="#8b949e" stroke-opacity="0.35"/>
<text x="576.36" y="254.02" fill="#e6edf3" font-weight="600">Company_1</text>
<rect x="688.33" y="183.14" width="83.3" height="20" rx="5" fill="#0d1117" fill-opacity="0.78" stroke="#8b949e" stroke-opacity="0.35"/>
<text x="695.33" y="197.14" fill="#e6edf3" font-weight="600">Person_49</text>
<rect x="688.33" y="238.9" width="83.3" height="20" rx="5" fill="#0d1117" fill-opacity="0.78" stroke="#8b949e" stroke-opacity="0.35"/>
<text x="695.33" y="252.9" fill="#e6edf3" font-weight="600">Person_36</text>
<rect x="648.89" y="278.34" width="83.3" height="20" rx="5" fill="#0d1117" fill-opacity="0.78" stroke="#8b949e" stroke-opacity="0.35"/>
<text x="655.89" y="292.34" fill="#e6edf3" font-weight="600">Person_30</text>
<rect x="239.75" y="494.04" width="83.3" height="20" rx="5" fill="#0d1117" fill-opacity="0.78" stroke="#8b949e" stroke-opacity="0.35"/>
<text x="246.75" y="508.04" fill="#e6edf3" font-weight="600">Company_2</text>
<rect x="272.8" y="551.46" width="83.3" height="20" rx="5" fill="#0d1117" fill-opacity="0.78" stroke="#8b949e" stroke-opacity="0.35"/>
<text x="279.8" y="565.46" fill="#e6edf3" font-weight="600">Person_18</text>
<rect x="547.19" y="493.12" width="83.3" height="20" rx="5" fill="#0d1117" fill-opacity="0.78" stroke="#8b949e" stroke-opacity="0.35"/>
<text x="554.19" y="507.12" fill="#e6edf3" font-weight="600">Company_3</text>
<rect x="581.68" y="551.2" width="83.3" height="20" rx="5" fill="#0d1117" fill-opacity="0.78" stroke="#8b949e" stroke-opacity="0.35"/>
<text x="588.68" y="565.2" fill="#e6edf3" font-weight="600">Person_37</text>
</g>
<rect x="12" y="12" width="263.25" height="73.6" rx="6" fill="#0d1117" fill-opacity="0.85" stroke="#8b949e" stroke-opacity="0.30"/>
<g font-family="ui-monospace, SFMono-Regular, &apos;SF Mono&apos;, Menlo, Consolas, monospace" font-size="12">
<text x="24" y="34.4" fill="#c9d1d9">meta.kgl</text>
<text x="24" y="53.6" fill="#c9d1d9">tier full · 118 nodes / 560 edges</text>
<text x="24" y="72.8" fill="#c9d1d9">28 nodes / 24 links drawn</text>
</g>
</svg>
